<svg width="97" height="30" viewBox="0 0 97 30" fill="none" xmlns="http://www.w3.org/2000/svg">
<path d="M2 13C0.89543 13 -2.94488e-07 13.8954 -2.38419e-07 15C-1.82349e-07 16.1046 0.89543 17 2 17L2 13ZM96.4142 16.4142C97.1953 15.6332 97.1953 14.3668 96.4142 13.5858L83.6863 0.857859C82.9052 0.0768097 81.6389 0.0768098 80.8579 0.857859C80.0768 1.63891 80.0768 2.90524 80.8579 3.68629L92.1716 15L80.8579 26.3137C80.0768 27.0948 80.0768 28.3611 80.8579 29.1421C81.6389 29.9232 82.9052 29.9232 83.6863 29.1421L96.4142 16.4142ZM2 17L95 17L95 13L2 13L2 17Z" fill="white"/>
</svg>
