<svg width="58" height="30" viewBox="0 0 58 30" fill="none" xmlns="http://www.w3.org/2000/svg">
<path d="M2 13C0.89543 13 -3.34983e-07 13.8954 -2.38419e-07 15C-1.41854e-07 16.1046 0.89543 17 2 17L2 13ZM57.4142 16.4142C58.1953 15.6332 58.1953 14.3668 57.4142 13.5858L44.6863 0.857859C43.9052 0.0768102 42.6389 0.0768103 41.8579 0.857859C41.0768 1.63891 41.0768 2.90524 41.8579 3.68629L53.1716 15L41.8579 26.3137C41.0768 27.0948 41.0768 28.3611 41.8579 29.1421C42.6389 29.9232 43.9052 29.9232 44.6863 29.1421L57.4142 16.4142ZM2 17L56 17L56 13L2 13L2 17Z" fill="white"/>
</svg>
