<?xml version="1.0" encoding="UTF-8" standalone="no"?>
<!-- Created with Inkscape (http://www.inkscape.org/) -->

<svg
   width="120"
   height="120"
   viewBox="0 0 31.75 31.75"
   version="1.1"
   id="svg5"
   inkscape:version="1.1 (c68e22c387, 2021-05-23)"
   sodipodi:docname="cupimg.svg"
   xmlns:inkscape="http://www.inkscape.org/namespaces/inkscape"
   xmlns:sodipodi="http://sodipodi.sourceforge.net/DTD/sodipodi-0.dtd"
   xmlns="http://www.w3.org/2000/svg"
   xmlns:svg="http://www.w3.org/2000/svg">
  <sodipodi:namedview
     id="namedview7"
     pagecolor="#505050"
     bordercolor="#eeeeee"
     borderopacity="1"
     inkscape:pageshadow="0"
     inkscape:pageopacity="0"
     inkscape:pagecheckerboard="0"
     inkscape:document-units="px"
     showgrid="false"
     inkscape:zoom="3.7694533"
     inkscape:cx="60.35358"
     inkscape:cy="60.35358"
     inkscape:window-width="1366"
     inkscape:window-height="705"
     inkscape:window-x="-8"
     inkscape:window-y="-8"
     inkscape:window-maximized="1"
     inkscape:current-layer="layer2" />
  <defs
     id="defs2" />
  <g
     inkscape:label="Слой 1"
     inkscape:groupmode="layer"
     id="layer1"
     style="display:inline">
    <g
       id="g898"
       transform="matrix(0.05034194,0,0,0.0510062,3.8932001,3.631683)"
       style="fill:#202020;fill-opacity:1">
      <g
         id="g838"
         style="fill:#202020;fill-opacity:1">
        <g
           id="g836"
           style="fill:#202020;fill-opacity:1">
          <g
             id="g834"
             style="fill:#202020;fill-opacity:1">
            <path
               d="M 391.471,37.711 H 373.928 V 25.754 C 373.928,11.516 362.396,0 348.174,0 H 138.896 C 124.689,0 113.158,11.516 113.158,25.754 V 37.711 H 95.616 c -9.395,0 -17.02,7.625 -17.02,17.02 v 22.668 c 0,3.527 2.863,6.375 6.375,6.375 h 317.145 c 3.513,0 6.375,-2.848 6.375,-6.375 V 54.731 c -10e-4,-9.395 -7.626,-17.02 -17.02,-17.02 z"
               id="path824"
               style="fill:#202020;fill-opacity:1" />
            <path
               d="m 326.787,364.965 -7.48,85.105 c -0.238,2.625 -2.406,4.615 -5.062,4.615 H 172.842 c -2.609,0 -4.824,-2.021 -5.063,-4.615 l -7.48,-85.105 h -22.543 c -3.527,0 -6.898,-0.647 -10.125,-1.613 l 7.879,89.531 c 1.707,19.508 17.766,34.203 37.332,34.203 h 141.403 c 19.563,0 35.62,-14.695 37.332,-34.203 l 7.875,-89.5 c -3.195,0.949 -6.5,1.582 -9.98,1.582 z"
               id="path826"
               style="fill:#202020;fill-opacity:1" />
            <path
               d="m 113.033,197.195 c 4.285,-1.789 8.887,-2.816 13.633,-2.816 h 18.652 l -5.141,-58.402 h 206.746 l -5.142,58.402 h 18.777 c 4.699,0 9.254,1.012 13.508,2.781 l 8.228,-93.582 H 104.807 Z"
               id="path828"
               style="fill:#202020;fill-opacity:1" />
            <path
               id="path830"
               style="fill:#202020;fill-opacity:1;stroke-width:0.19152"
               transform="matrix(5.2557238,0,0,5.1872779,-77.335123,-71.200815)"
               d="m 38.814453,55.882812 c -0.592306,0 -1.158878,0.256045 -1.552734,0.701172 -0.346289,0.393849 -0.502944,0.904699 -0.496094,1.425782 0,0.07383 -0.03043,0.14178 -0.02148,0.214843 l 0.193359,1.75586 1.914062,17.541015 c 0.117396,1.073589 1.009285,1.878907 2.074219,1.878907 h 40.28125 c 1.066266,0 1.956823,-0.805318 2.074219,-1.878907 l 1.791016,-16.40625 0.283203,-3.238281 c -0.02683,-0.475972 -0.168529,-0.93305 -0.484375,-1.292969 -0.394427,-0.444742 -0.959667,-0.701171 -1.552735,-0.701172 H 42.767578 Z m 21.945313,1.072266 c 0.188894,-0.0025 0.377814,0.0042 0.564453,0.01758 0.08955,0.0064 0.408804,0.05418 0.632812,0.08789 0.263516,-0.01464 0.532566,-0.02566 0.650391,-0.02344 0.03904,8.02e-4 0.07814,0.0012 0.117187,0.002 1.912471,0.03938 3.110698,0.768693 3.611329,1.673829 0.631873,0.286763 1.210113,0.672687 1.707031,1.175781 1.891739,1.918395 2.206201,4.975995 1.134765,8.044922 0.0654,0.206425 0.132703,0.411038 0.222657,0.605468 0.06928,0.506191 0.177173,1.009496 0.207031,1.519532 0.01425,0.244735 -0.04329,0.487521 -0.07617,0.730468 -0.203308,1.509406 -0.824042,1.535997 -2.595703,2.642579 -0.173567,0.108359 -0.406263,0.04927 -0.609375,0.07422 -0.01168,3.43e-4 -0.02348,0.0015 -0.03516,0.002 -0.519038,0.38705 -1.083548,0.719678 -1.638672,1.041016 -0.300119,0.134204 -0.59069,0.247696 -0.878906,0.34375 -0.487945,0.342072 -0.986674,0.647855 -1.490235,0.914063 0.551206,2.0254 -1.587301,3.8001 -4.839844,2.173828 -0.281396,-0.140697 -0.62038,-0.295001 -0.916015,-0.488281 -1.486072,0.157075 -2.520969,-0.480493 -2.914063,-1.390626 C 53.304156,75.894545 53.00968,75.663343 52.742188,75.392578 50.310093,72.925902 50.519889,68.585986 52.898438,64.75 50.249695,63.39518 51.054872,59.824075 55.3125,59.955078 c 0.313637,0.0097 0.609576,0.0018 0.884766,-0.0078 0.288773,-0.195171 0.607691,-0.309995 1.029296,-0.326172 0.227931,-0.633426 0.644,-1.248415 0.808594,-1.554688 0.683691,-0.827641 1.704582,-1.097977 2.72461,-1.111328 z m 1.318359,0.115234 c -0.01892,0.001 -0.02486,9.28e-4 -0.04297,0.002 0.133891,0.0198 0.210944,0.02948 0.04297,-0.002 z m -4.865234,2.589844 c -0.114543,0.0092 -0.236166,0.01823 -0.302735,0.03906 -0.122125,0.03824 -0.35743,0.154601 -0.515625,0.242187 0.05638,-0.0019 0.12154,-0.0045 0.173828,-0.0059 0.302299,-0.106845 0.483787,-0.181895 0.634766,-0.248047 0.0031,-0.0092 0.0066,-0.01817 0.0098,-0.02734 z m 9.541015,13.578125 c -0.06968,0.03356 -0.136745,0.07062 -0.205078,0.107422 0.09117,-0.02538 0.275516,-0.14147 0.205078,-0.107422 z" />
            <path
               id="path832"
               style="fill:#202020;fill-opacity:1;stroke-width:0.19152"
               transform="matrix(5.2557238,0,0,5.1872779,-77.335123,-71.200815)"
               d="m 66.324219,60.763672 c -0.09168,0.160665 -0.205269,0.313929 -0.341797,0.458984 1.42013,0.921579 0.55404,-0.0222 0.902344,2.011719 0.0024,0.01382 0.004,0.01358 0.0059,0.02148 0.0043,-0.0048 0.0095,-0.0088 0.01367,-0.01367 0.0064,-0.130819 -0.01212,-0.580211 -0.002,-0.765626 7.56e-4,-0.01179 0.02062,0.01563 0.02344,0.02734 0.05887,0.242557 0.100682,0.400968 0.13086,0.523438 0.216051,-0.358079 0.293945,-0.801217 0.173828,-1.236328 -0.133826,-0.484997 -0.478339,-0.852896 -0.90625,-1.027344 z m -11.472657,10.58789 -0.527343,0.304688 c -0.741097,0.427006 -0.995664,1.382708 -0.574219,2.132812 0.02512,0.04415 0.05345,0.08426 0.08203,0.125 0.351193,-0.578008 0.946881,-1.124438 1.81836,-1.552734 -0.343667,-0.283949 -0.60524,-0.627373 -0.798829,-1.009766 z M 55.697266,72.125 c -0.0065,-0.0026 0.03865,0.07786 0.0957,0.167969 0.0064,-0.003 0.01308,-0.0049 0.01953,-0.0078 -0.03267,-0.04629 -0.06412,-0.08814 -0.09766,-0.136718 -0.01015,-0.0147 -0.01581,-0.02274 -0.01758,-0.02344 z" />
          </g>
        </g>
      </g>
      <g
         id="g840"
         style="fill:#202020;fill-opacity:1" />
      <g
         id="g842"
         style="fill:#202020;fill-opacity:1" />
      <g
         id="g844"
         style="fill:#202020;fill-opacity:1" />
      <g
         id="g846"
         style="fill:#202020;fill-opacity:1" />
      <g
         id="g848"
         style="fill:#202020;fill-opacity:1" />
      <g
         id="g850"
         style="fill:#202020;fill-opacity:1" />
      <g
         id="g852"
         style="fill:#202020;fill-opacity:1" />
      <g
         id="g854"
         style="fill:#202020;fill-opacity:1" />
      <g
         id="g856"
         style="fill:#202020;fill-opacity:1" />
      <g
         id="g858"
         style="fill:#202020;fill-opacity:1" />
      <g
         id="g860"
         style="fill:#202020;fill-opacity:1" />
      <g
         id="g862"
         style="fill:#202020;fill-opacity:1" />
      <g
         id="g864"
         style="fill:#202020;fill-opacity:1" />
      <g
         id="g866"
         style="fill:#202020;fill-opacity:1" />
      <g
         id="g868"
         style="fill:#202020;fill-opacity:1" />
    </g>
    <path
       id="path1439"
       style="fill:#202020;fill-opacity:1;stroke:#000000;stroke-width:0.999999;stroke-opacity:0"
       transform="scale(0.26458333)"
       d="m 49.154297,66.130859 c 0,0 -3.333984,1.699215 -3.333985,1.699219 -5.62e-4,0.651148 0.106363,1.269858 0.367188,1.865234 0.487952,0.826043 0.937673,1.677271 1.478516,2.470704 0.387303,0.48681 0.897717,0.841165 1.425781,1.158203 0.572927,0.300359 1.107225,0.6646 1.630859,1.042969 0.546263,0.503095 1.134473,0.947835 1.652344,1.480468 0.483718,0.50092 1.121896,0.765824 1.767578,0.990235 -0.999008,-0.909414 -1.000274,-2.550472 0.429688,-3.777344 -0.261745,-0.201402 -0.525969,-0.401332 -0.742188,-0.654297 -0.510871,-0.415449 -1.068752,-0.770093 -1.640625,-1.095703 -0.501127,-0.270463 -0.965033,-0.602074 -1.361328,-1.013672 -0.56626,-0.738482 -1.031463,-1.551686 -1.443359,-2.384766 -0.199824,-0.580467 -0.30417,-1.164514 -0.230469,-1.78125 z m 7.373047,11.361329 c -0.05651,0.006 -0.110816,0.008 -0.166016,0.01172 0.109063,0.02946 0.218865,0.0567 0.328125,0.08594 -0.05448,-0.03191 -0.109781,-0.06345 -0.162109,-0.09766 z" />
    <path
       id="path1441"
       style="fill:#202020;fill-opacity:1;stroke:#000000;stroke-width:0.999999;stroke-opacity:0"
       transform="scale(0.26458333)"
       d="m 51.324219,64.945312 -3.177735,1.947266 c 0.868997,0.777018 1.584797,1.709866 2.263672,2.652344 0.23394,0.425691 1.026105,1.387762 0.759766,1.9375 0.448675,-0.260212 0.899861,-0.517015 1.349609,-0.775391 -0.798919,0.496355 -1.594157,0.998932 -2.392578,1.496094 -0.12223,0.273638 -0.174772,0.565102 -0.228515,0.857422 l 3.328124,-1.603516 c 0.06522,-0.235777 0.124224,-0.466053 0.279297,-0.658203 0.195655,-0.110134 0.390845,-0.218947 0.585938,-0.330078 0.05446,-0.03099 0.256383,-0.207029 0.292969,-0.261719 0.02737,-0.04094 0.04664,-0.08855 0.06445,-0.134765 -0.05016,-0.294779 -0.07773,-0.594196 -0.08789,-0.894532 -0.06329,-0.170962 -0.148469,-0.336295 -0.242187,-0.498046 -0.07122,0.311661 -0.14757,0.615765 -0.25,0.796874 -0.04464,0.07888 -0.06673,-0.16748 -0.09961,-0.251953 -0.240793,-0.618262 -0.12636,-0.343564 -0.324219,-0.808593 -0.06572,-0.242703 -0.326412,-0.512743 -0.197265,-0.728516 0.03003,-0.05017 0.06786,-0.09617 0.101562,-0.144531 -0.658782,-0.877731 -1.314209,-1.762454 -2.02539,-2.597657 z m -0.154297,6.53711 c -0.184507,0.107006 -0.369037,0.213877 -0.552734,0.322266 -0.347482,0.205022 0.315782,-0.169144 0.52539,-0.271485 0.01024,-0.0161 0.01915,-0.03387 0.02734,-0.05078 z m -0.02734,0.05078 c -0.01027,0.01615 -0.02273,0.03159 -0.03516,0.04687 0.131006,-0.0863 0.114521,-0.08563 0.03516,-0.04687 z" />
    <path
       id="path1676"
       style="fill:#ff6600;fill-opacity:1;stroke:#000000;stroke-width:0.999999;stroke-opacity:0"
       transform="scale(0.26458333)"
       d="m 67.166016,64.251953 c -0.0036,0.125131 -0.0092,0.24932 -0.01953,0.373047 0.277536,0.224879 0.529685,0.489322 0.777344,0.816406 l 0.195313,-0.121094 c -0.379095,-0.305226 -0.670014,-0.681144 -0.953125,-1.068359 z" />
    <path
       id="path1680"
       style="fill:#ff6600;fill-opacity:1;stroke:#000000;stroke-width:0.999999;stroke-opacity:0"
       transform="scale(0.26458333)"
       d="m 54.640625,67.427734 c -0.0099,0.02037 -0.03366,0.08711 -0.06055,0.166016 0.0073,0.0044 0.01421,0.0093 0.02148,0.01367 0.0074,-0.02663 0.01459,-0.05322 0.02148,-0.08008 0.02498,-0.09731 0.02841,-0.121901 0.01758,-0.09961 z" />
    <path
       id="path1682"
       style="fill:#ff6600;fill-opacity:1;stroke:#000000;stroke-width:0.999999;stroke-opacity:0"
       transform="scale(0.26458333)"
       d="m 55.851562,69.896484 c -0.224584,0.340869 -0.214015,0.602339 0.205079,0.732422 -0.035,-0.20976 -0.09974,-0.451933 -0.205079,-0.732422 z m -1.40625,0.154297 -0.449218,0.283203 c 0.186636,0.09307 0.375695,0.178493 0.568359,0.257813 -0.0489,-0.176448 -0.08873,-0.358113 -0.119141,-0.541016 z" />
    <path
       id="path1684"
       style="fill:#ff6600;fill-opacity:1;stroke:#000000;stroke-width:0.999999;stroke-opacity:0"
       transform="scale(0.26458333)"
       d="m 55.082031,71.734375 -1.048828,0.722656 c 0.411045,0.04866 0.823405,0.08203 1.236328,0.107422 0.12069,-0.07087 0.249243,-0.139503 0.382813,-0.205078 -0.223385,-0.184799 -0.412864,-0.39505 -0.570313,-0.625 z m 0.615235,0.392578 c 0.0045,0.01444 0.0455,0.08671 0.0957,0.166016 0.0059,-0.0027 0.01167,-0.0051 0.01758,-0.0078 -0.03187,-0.04518 -0.063,-0.08936 -0.0957,-0.136718 -0.0093,-0.01347 -0.01536,-0.01973 -0.01758,-0.02148 z" />
    <path
       id="path1686"
       style="fill:#ff6600;fill-opacity:1;stroke:#000000;stroke-width:0.999999;stroke-opacity:0"
       transform="scale(0.26458333)"
       d="m 55.851562,69.896484 c -0.224583,0.340869 -0.214015,0.602339 0.205079,0.732422 -0.035,-0.20976 -0.09974,-0.451933 -0.205079,-0.732422 z m -1.328124,0.541016 -2.056641,1.494141 c 0.739703,-0.02305 1.459205,0.196374 2.175781,0.345703 0.396212,0.08257 0.629155,0.124542 0.855469,0.160156 0.04946,-0.02607 0.100959,-0.05092 0.152344,-0.07617 -0.600752,-0.496699 -0.946357,-1.178561 -1.126953,-1.923828 z m 1.173828,1.6875 c -0.0065,-0.0026 0.03868,0.07789 0.0957,0.167969 0.0059,-0.0027 0.01167,-0.0051 0.01758,-0.0078 -0.03186,-0.04498 -0.06294,-0.08928 -0.0957,-0.136718 -0.01015,-0.0147 -0.01581,-0.02274 -0.01758,-0.02344 z" />
    <path
       id="path1690"
       style="fill:#ff6600;fill-opacity:1;stroke:#000000;stroke-width:0.999999;stroke-opacity:0"
       transform="scale(0.26458333)"
       d="m 67.761719,63.962891 c -0.07386,0.0011 -0.146314,0.0055 -0.21875,0.01953 -0.107415,0.02083 -0.238005,0.06301 -0.375,0.113281 -7.12e-4,0.177557 -0.0069,0.354283 -0.02148,0.529297 0.588875,0.47715 1.062149,1.120418 1.625,2.201172 0.278676,0.535075 0.374544,1.163095 0.628907,1.71289 0.06928,0.506189 0.177173,1.009496 0.207031,1.519532 0.01269,0.217941 -0.03139,0.43405 -0.06445,0.65039 0.93449,-0.892362 1.819467,-1.904285 2.052734,-3.015625 0.0514,-0.244875 0.0291,-0.500173 0.04297,-0.75 -0.170268,-1.286963 -0.712211,-1.947532 -1.947266,-2.298828 -0.191697,-9.9e-4 -0.383995,-0.02579 -0.574218,-0.002 -0.223651,0.02811 -0.476235,0.09852 -0.744141,0.197266 -0.0336,-0.0072 -0.06692,-0.01464 -0.101563,-0.02148 -0.01055,4.52e-4 -0.02071,0.0014 -0.03125,0.002 0.143434,-0.195969 0.238221,-0.377366 0.212891,-0.49414 -0.03402,-0.157228 -0.213087,-0.239451 -0.320313,-0.359375 -0.122929,0.0035 -0.247993,-0.0058 -0.371093,-0.0039 z" />
    <path
       id="path1692"
       style="fill:#ff6600;fill-opacity:1;stroke:#000000;stroke-width:0.999999;stroke-opacity:0"
       transform="scale(0.26458333)"
       d="m 68.800781,65.314453 c -0.273399,0.0017 -0.621222,0.130703 -0.816406,0.207031 0.215549,0.294738 0.430175,0.644065 0.65625,1.060547 0.08162,-0.145711 0.136454,-0.284961 0.150391,-0.408203 0.216291,-0.17135 0.387277,-0.337101 0.398437,-0.447266 0.03212,-0.317019 -0.148926,-0.413577 -0.388672,-0.412109 z" />
    <path
       style="fill:#202020;fill-opacity:1;stroke:#000000;stroke-width:0.264583;stroke-opacity:0"
       id="path6254"
       d="m 13.084611,15.842118 c -0.05993,0.236377 -0.140675,0.467847 -0.230928,0.694273 -0.01418,0.04511 -0.02835,0.09022 -0.04253,0.135323 0,0 0.867781,-0.407909 0.867781,-0.407909 v 0 c 0.01515,-0.04389 0.0303,-0.08778 0.04544,-0.131669 0.08641,-0.235216 0.168957,-0.471848 0.251323,-0.708505 0,0 -0.891086,0.418487 -0.891086,0.418487 z" />
    <path
       style="fill:#202020;fill-opacity:1;stroke:#000000;stroke-width:0.264583;stroke-opacity:0"
       id="path6256"
       d="m 14.335044,15.642451 c -0.45104,0.03791 -1.042649,0.456387 -1.290597,0.888894 -0.132959,0.186075 -0.213865,0.398882 -0.260054,0.621254 -0.0042,0.02881 -0.0083,0.05761 -0.01248,0.08642 0,0 0.875779,-0.429309 0.875779,-0.429309 v 0 c 0.0045,-0.0267 0.009,-0.0534 0.01347,-0.08011 0.04989,-0.21241 0.137733,-0.409074 0.26569,-0.5869 0.07103,-0.101742 0.143209,-0.191386 0.241527,-0.268878 0.02868,-0.02261 0.12253,-0.07921 0.09029,-0.06205 -0.839621,0.447034 -1.053729,0.499149 -0.724694,0.412688 0,0 0.801067,-0.582009 0.801067,-0.582009 z" />
    <path
       style="fill:#202020;fill-opacity:1;stroke:#000000;stroke-width:0.264583;stroke-opacity:0"
       id="path6258"
       d="m 13.5365,16.206226 c -0.188917,0.173469 -0.341475,0.38144 -0.478959,0.596741 -0.08201,0.128244 -0.04396,0.06427 -0.114675,0.191603 0,0 0.88545,-0.395016 0.88545,-0.395016 v 0 c 0.06986,-0.120365 0.03278,-0.05905 0.111625,-0.183714 0.141759,-0.212516 0.29671,-0.426131 0.516171,-0.564396 0,0 -0.919612,0.354782 -0.919612,0.354782 z" />
    <path
       style="fill:#202020;fill-opacity:1;stroke:#000000;stroke-width:0.264583;stroke-opacity:0"
       id="path6260"
       d="m 13.388776,16.067098 c 0.02335,0.210442 -0.01258,0.416949 -0.05956,0.621121 -0.05117,0.179382 -0.100796,0.353759 -0.123066,0.539491 -0.02309,0.183703 -0.04578,0.367012 -0.06248,0.551563 0,0 0.862411,-0.429065 0.862411,-0.429065 v 0 c 0.01879,-0.184671 0.05089,-0.367228 0.07165,-0.551624 0.0284,-0.180767 0.08872,-0.352708 0.123957,-0.532051 0.04205,-0.213651 0.06313,-0.428885 0.06497,-0.646733 0,0 -0.877873,0.447298 -0.877873,0.447298 z" />
    <path
       id="path6262"
       style="fill:#202020;fill-opacity:1;stroke:#000000;stroke-width:0.999999;stroke-opacity:0"
       transform="scale(0.26458333)"
       d="m 55.632812,58.701172 c -0.44059,0.05975 -0.22142,0.02584 -0.662109,0.09766 -0.541047,0.100536 -1.079194,0.191091 -1.626953,0.253906 l -2.970703,2.273438 c 0.543262,-0.153147 1.10796,-0.194514 1.660156,-0.304688 0.435946,-0.08039 0.217461,-0.04438 0.650391,-0.113281 z" />
  </g>
  <g
     inkscape:groupmode="layer"
     id="layer2"
     inkscape:label="Слой 2"
     style="display:inline">
    <g
       style="fill:#ff651f;fill-opacity:1"
       id="g1164"
       transform="matrix(0.31848642,0,0,0.30554827,11.292881,13.343897)">
      <path
         d="m 16.912,12.876 c 0,-0.797 -0.575,-1.275 -1.573,-1.275 h -1.746 v 2.543 h 1.573 c 1.13,0 1.746,-0.464 1.746,-1.268 z m -1.503,2.682 h -1.816 v 2.841 h 1.864 c 1.206,0 1.857,-0.506 1.857,-1.441 0,-0.915 -0.672,-1.4 -1.905,-1.4 z"
         id="path1152"
         style="fill:#ff651f;fill-opacity:1" />
      <path
         d="M 15,3 C 8.373,3 3,8.373 3,15 3,21.627 8.373,27 15,27 21.627,27 27,21.627 27,15 27,8.373 21.627,3 15,3 Z m 1,16.999 V 22 H 14 V 20 H 11.5 V 10 H 14 V 8 h 2 v 2.008 c 1.86,0.043 2.971,0.977 2.971,2.487 0,1.06 -0.783,1.982 -1.809,2.134 v 0.125 c 1.324,0.097 2.287,1.095 2.287,2.384 0,1.75 -1.32,2.858 -3.449,2.861 z"
         id="path1154"
         style="fill:#ff651f;fill-opacity:1" />
    </g>
  </g>
</svg>
